<?xml version="1.0" encoding="UTF-8" standalone="no"?>
<!DOCTYPE svg PUBLIC "-//W3C//DTD SVG 1.1//EN" "http://www.w3.org/Graphics/SVG/1.1/DTD/svg11.dtd">
<svg width="100%" height="100%" viewBox="0 0 566 506" version="1.1" xmlns="http://www.w3.org/2000/svg" xmlns:xlink="http://www.w3.org/1999/xlink" xml:space="preserve" xmlns:serif="http://www.serif.com/" style="fill-rule:evenodd;clip-rule:evenodd;stroke-linejoin:round;stroke-miterlimit:2;">
    <g transform="matrix(1,0,0,1,-2.10725,-3326.39)">
        <g id="Colour-Icon-Black" serif:id="Colour Icon Black" transform="matrix(0.227913,0,0,0.842593,-4.73014,2106.76)">
            <rect x="30" y="1447.48" width="2480.94" height="599.948" style="fill:none;"/>
            <g id="Black" transform="matrix(4.38764,0,0,1.18681,-873.468,-678.527)">
                <g transform="matrix(9.54834,0,0,9.54834,-8177.42,-13465.3)">
                    <g transform="matrix(50,0,0,50,875.306,1643.35)">
                        <path d="M0.302,-0.322L0.302,-0.434L0.5,-0.548L0.596,-0.492L0.302,-0.322ZM0.226,-0.214L0.129,-0.27L0.128,-0.598L0.225,-0.541L0.226,-0.214ZM0.232,-0.553L0.135,-0.609L0.499,-0.819L0.596,-0.763L0.232,-0.553ZM0.227,0.057L0.13,0.001L0.13,-0.056L0.227,0L0.227,0.057ZM0.233,-0.011L0.137,-0.067L0.438,-0.241L0.534,-0.185L0.233,-0.011ZM0.541,-0.196L0.444,-0.253L0.444,-0.316L0.541,-0.372L0.541,-0.196ZM0.24,0.057L0.24,0L0.551,-0.179C0.553,-0.181 0.554,-0.182 0.554,-0.185L0.554,-0.383C0.554,-0.388 0.551,-0.39 0.547,-0.39C0.546,-0.39 0.443,-0.331 0.239,-0.213C0.239,-0.323 0.239,-0.432 0.238,-0.541L0.602,-0.751L0.603,-0.694L0.292,-0.515C0.29,-0.513 0.288,-0.512 0.288,-0.509C0.288,-0.462 0.289,-0.396 0.289,-0.311C0.289,-0.306 0.292,-0.304 0.295,-0.304C0.297,-0.304 0.399,-0.363 0.603,-0.48L0.604,-0.153L0.24,0.057Z" style="fill:rgb(240,74,0);fill-rule:nonzero;"/>
                    </g>
                </g>
                <g transform="matrix(-9.54834,0,0,9.54834,9147.92,-13465.3)">
                    <g transform="matrix(50,0,0,50,875.306,1643.35)">
                        <path d="M0.226,-0.484L0.129,-0.541L0.128,-0.598L0.226,-0.542L0.226,-0.484ZM0.232,-0.553L0.135,-0.609L0.499,-0.819L0.596,-0.763L0.232,-0.553ZM0.384,-0.034L0.288,-0.09L0.286,-0.497L0.383,-0.552L0.384,-0.034ZM0.397,-0.034L0.396,-0.564C0.396,-0.568 0.394,-0.57 0.389,-0.57C0.388,-0.57 0.338,-0.542 0.239,-0.484L0.239,-0.542L0.603,-0.751L0.603,-0.694L0.449,-0.606C0.447,-0.604 0.446,-0.602 0.446,-0.6L0.447,-0.062L0.397,-0.034Z" style="fill:rgb(240,74,0);fill-rule:nonzero;"/>
                    </g>
                </g>
            </g>
        </g>
    </g>
</svg>
