<?xml version="1.0" encoding="UTF-8" standalone="no"?>
<!DOCTYPE svg PUBLIC "-//W3C//DTD SVG 1.1//EN" "http://www.w3.org/Graphics/SVG/1.1/DTD/svg11.dtd">
<svg width="100%" height="100%" viewBox="0 0 2356 506" version="1.1" xmlns="http://www.w3.org/2000/svg" xmlns:xlink="http://www.w3.org/1999/xlink" xml:space="preserve" xmlns:serif="http://www.serif.com/" style="fill-rule:evenodd;clip-rule:evenodd;stroke-linejoin:round;stroke-miterlimit:2;">
    <g transform="matrix(1,0,0,1,-8.52651e-13,-661.559)">
        <g id="Colour-Bold" serif:id="Colour Bold" transform="matrix(0.93593,0,0,0.751392,-28.1871,129.196)">
            <rect x="30.117" y="708.503" width="2516.55" height="672.767" style="fill:none;"/>
            <g id="Bold" transform="matrix(1.06846,0,0,1.33086,-183.166,-1677.85)">
                <g transform="matrix(9.54834,0,0,9.54834,-8177.42,-13465.3)">
                    <text x="875.306px" y="1643.35px" style="font-family:'3DIsometric-Bold', '3D Isometric', fantasy;font-weight:700;font-size:50px;fill:rgb(240,74,0);">S</text>
                </g>
                <g transform="matrix(-9.54834,0,0,9.54834,9143.14,-13465.3)">
                    <text x="875.306px" y="1643.35px" style="font-family:'3DIsometric-Bold', '3D Isometric', fantasy;font-weight:700;font-size:50px;fill:rgb(240,74,0);">O</text>
                </g>
                <g transform="matrix(9.54834,0,0,9.54834,-7666.52,-13465.3)">
                    <text x="875.306px" y="1643.35px" style="font-family:'3DIsometric-Bold', '3D Isometric', fantasy;font-weight:700;font-size:50px;fill:rgb(240,74,0);">L</text>
                </g>
                <g transform="matrix(-9.54834,0,0,9.54834,9654.28,-13465.3)">
                    <text x="875.306px" y="1643.35px" style="font-family:'3DIsometric-Bold', '3D Isometric', fantasy;font-weight:700;font-size:50px;fill:rgb(240,74,0);">I</text>
                </g>
                <g transform="matrix(9.54834,0,0,9.54834,-7155.39,-13465.3)">
                    <text x="875.306px" y="1643.35px" style="font-family:'3DIsometric-Bold', '3D Isometric', fantasy;font-weight:700;font-size:50px;fill:rgb(240,74,0);">D</text>
                </g>
                <g transform="matrix(-9.54834,0,0,9.54834,10165.7,-13465.3)">
                    <text x="875.306px" y="1643.35px" style="font-family:'3DIsometric-Bold', '3D Isometric', fantasy;font-weight:700;font-size:50px;fill:rgb(240,74,0);">T</text>
                </g>
                <g transform="matrix(9.54834,0,0,9.54834,-6643.99,-13465.3)">
                    <text x="875.306px" y="1643.35px" style="font-family:'3DIsometric-Bold', '3D Isometric', fantasy;font-weight:700;font-size:50px;fill:rgb(240,74,0);">Y</text>
                </g>
                <g transform="matrix(-9.54834,0,0,9.54834,10676.3,-13465.3)">
                    <text x="875.306px" y="1643.35px" style="font-family:'3DIsometric-Bold', '3D Isometric', fantasy;font-weight:700;font-size:50px;fill:rgb(240,74,0);">9</text>
                </g>
                <g transform="matrix(9.54834,0,0,9.54834,-6133.33,-13465.3)">
                    <text x="875.306px" y="1643.35px" style="font-family:'3DIsometric-Bold', '3D Isometric', fantasy;font-weight:700;font-size:50px;fill:rgb(240,74,0);">E</text>
                </g>
            </g>
        </g>
    </g>
</svg>
