<?xml version="1.0" encoding="UTF-8" standalone="no"?>
<!DOCTYPE svg PUBLIC "-//W3C//DTD SVG 1.1//EN" "http://www.w3.org/Graphics/SVG/1.1/DTD/svg11.dtd">
<svg width="100%" height="100%" viewBox="0 0 565 506" version="1.1" xmlns="http://www.w3.org/2000/svg" xmlns:xlink="http://www.w3.org/1999/xlink" xml:space="preserve" xmlns:serif="http://www.serif.com/" style="fill-rule:evenodd;clip-rule:evenodd;stroke-linejoin:round;stroke-miterlimit:2;">
    <g transform="matrix(1,0,0,1,-2.10725,-2667.86)">
        <g id="Colour-Icon-Bold" serif:id="Colour Icon Bold" transform="matrix(0.224493,0,0,0.751392,-4.65375,2135.5)">
            <rect x="30.117" y="708.503" width="2516.55" height="672.767" style="fill:none;"/>
            <g id="Bold" transform="matrix(4.45447,0,0,1.33086,-859.077,-1677.85)">
                <g transform="matrix(9.54834,0,0,9.54834,-8177.42,-13465.3)">
                    <g transform="matrix(50,0,0,50,875.306,1643.35)">
                        <path d="M0.233,0.075L0.231,0.075L0.12,0.01C0.118,0.009 0.117,0.007 0.117,0.005L0.117,-0.068C0.117,-0.07 0.118,-0.072 0.12,-0.073L0.431,-0.253L0.431,-0.309C0.3,-0.233 0.234,-0.195 0.233,-0.195C0.232,-0.195 0.194,-0.217 0.119,-0.26C0.117,-0.262 0.116,-0.264 0.116,-0.266L0.115,-0.609C0.116,-0.612 0.117,-0.613 0.118,-0.615C0.371,-0.761 0.498,-0.833 0.499,-0.833C0.5,-0.833 0.538,-0.812 0.613,-0.768L0.613,-0.768C0.613,-0.768 0.613,-0.767 0.614,-0.767C0.614,-0.767 0.614,-0.767 0.614,-0.767L0.615,-0.763C0.616,-0.763 0.616,-0.739 0.616,-0.69C0.616,-0.688 0.615,-0.686 0.612,-0.685L0.302,-0.505L0.302,-0.449C0.432,-0.525 0.498,-0.563 0.5,-0.563C0.501,-0.563 0.52,-0.552 0.557,-0.53C0.595,-0.508 0.613,-0.497 0.614,-0.497L0.614,-0.497L0.615,-0.495C0.616,-0.495 0.617,-0.38 0.617,-0.149C0.617,-0.146 0.616,-0.144 0.614,-0.143C0.362,0.002 0.235,0.075 0.233,0.075ZM0.302,-0.322L0.596,-0.492L0.5,-0.548L0.302,-0.434L0.302,-0.322ZM0.226,-0.214L0.225,-0.541L0.128,-0.598L0.129,-0.27L0.226,-0.214ZM0.232,-0.553L0.596,-0.763L0.499,-0.819L0.135,-0.609L0.232,-0.553ZM0.227,0.057L0.227,0L0.13,-0.056L0.13,0.001L0.227,0.057ZM0.233,-0.011L0.534,-0.185L0.438,-0.241L0.137,-0.067L0.233,-0.011ZM0.541,-0.196L0.541,-0.372L0.444,-0.316L0.444,-0.253L0.541,-0.196Z" style="fill:rgb(240,74,0);fill-rule:nonzero;"/>
                    </g>
                </g>
                <g transform="matrix(-9.54834,0,0,9.54834,9141.63,-13465.3)">
                    <g transform="matrix(50,0,0,50,875.306,1643.35)">
                        <path d="M0.391,-0.016C0.389,-0.016 0.389,-0.016 0.388,-0.016C0.388,-0.016 0.351,-0.038 0.277,-0.081C0.275,-0.082 0.274,-0.084 0.274,-0.086L0.273,-0.489C0.247,-0.474 0.234,-0.467 0.234,-0.467L0.232,-0.467L0.229,-0.467L0.119,-0.531C0.117,-0.533 0.116,-0.535 0.116,-0.537L0.115,-0.61C0.116,-0.612 0.117,-0.614 0.119,-0.615C0.371,-0.761 0.498,-0.833 0.499,-0.833C0.5,-0.833 0.52,-0.823 0.557,-0.801C0.594,-0.779 0.613,-0.768 0.613,-0.768C0.613,-0.768 0.614,-0.767 0.614,-0.767C0.615,-0.766 0.615,-0.765 0.616,-0.764L0.616,-0.691C0.616,-0.688 0.615,-0.686 0.613,-0.685L0.459,-0.596L0.46,-0.059C0.46,-0.056 0.459,-0.054 0.457,-0.053C0.414,-0.028 0.392,-0.016 0.391,-0.016ZM0.226,-0.484L0.226,-0.542L0.128,-0.598L0.129,-0.541L0.226,-0.484ZM0.232,-0.553L0.596,-0.763L0.499,-0.819L0.135,-0.609L0.232,-0.553ZM0.384,-0.034L0.383,-0.552L0.286,-0.497L0.288,-0.09L0.384,-0.034Z" style="fill:rgb(240,74,0);fill-rule:nonzero;"/>
                    </g>
                </g>
            </g>
        </g>
    </g>
</svg>
