<?xml version="1.0" encoding="UTF-8" standalone="no"?>
<!DOCTYPE svg PUBLIC "-//W3C//DTD SVG 1.1//EN" "http://www.w3.org/Graphics/SVG/1.1/DTD/svg11.dtd">
<svg width="100%" height="100%" viewBox="0 0 2356 506" version="1.1" xmlns="http://www.w3.org/2000/svg" xmlns:xlink="http://www.w3.org/1999/xlink" xml:space="preserve" xmlns:serif="http://www.serif.com/" style="fill-rule:evenodd;clip-rule:evenodd;stroke-linejoin:round;stroke-miterlimit:2;">
    <g transform="matrix(1,0,0,1,-8.52651e-13,-661.559)">
        <g id="Colour-Bold" serif:id="Colour Bold" transform="matrix(0.93593,0,0,0.751392,-28.1871,129.196)">
            <rect x="30.117" y="708.503" width="2516.55" height="672.767" style="fill:none;"/>
            <g id="Bold" transform="matrix(1.06846,0,0,1.33086,-183.166,-1677.85)">
                <g transform="matrix(9.54834,0,0,9.54834,-8177.42,-13465.3)">
                    <g transform="matrix(50,0,0,50,875.306,1643.35)">
                        <path d="M0.233,0.075L0.231,0.075L0.12,0.01C0.118,0.009 0.117,0.007 0.117,0.005L0.117,-0.068C0.117,-0.07 0.118,-0.072 0.12,-0.073L0.431,-0.253L0.431,-0.309C0.3,-0.233 0.234,-0.195 0.233,-0.195C0.232,-0.195 0.194,-0.217 0.119,-0.26C0.117,-0.262 0.116,-0.264 0.116,-0.266L0.115,-0.609C0.116,-0.612 0.117,-0.613 0.118,-0.615C0.371,-0.761 0.498,-0.833 0.499,-0.833C0.5,-0.833 0.538,-0.812 0.613,-0.768L0.613,-0.768C0.613,-0.768 0.613,-0.767 0.614,-0.767C0.614,-0.767 0.614,-0.767 0.614,-0.767L0.615,-0.763C0.616,-0.763 0.616,-0.739 0.616,-0.69C0.616,-0.688 0.615,-0.686 0.612,-0.685L0.302,-0.505L0.302,-0.449C0.432,-0.525 0.498,-0.563 0.5,-0.563C0.501,-0.563 0.52,-0.552 0.557,-0.53C0.595,-0.508 0.613,-0.497 0.614,-0.497L0.614,-0.497L0.615,-0.495C0.616,-0.495 0.617,-0.38 0.617,-0.149C0.617,-0.146 0.616,-0.144 0.614,-0.143C0.362,0.002 0.235,0.075 0.233,0.075ZM0.302,-0.322L0.596,-0.492L0.5,-0.548L0.302,-0.434L0.302,-0.322ZM0.226,-0.214L0.225,-0.541L0.128,-0.598L0.129,-0.27L0.226,-0.214ZM0.232,-0.553L0.596,-0.763L0.499,-0.819L0.135,-0.609L0.232,-0.553ZM0.227,0.057L0.227,0L0.13,-0.056L0.13,0.001L0.227,0.057ZM0.233,-0.011L0.534,-0.185L0.438,-0.241L0.137,-0.067L0.233,-0.011ZM0.541,-0.196L0.541,-0.372L0.444,-0.316L0.444,-0.253L0.541,-0.196Z" style="fill:rgb(240,74,0);fill-rule:nonzero;"/>
                    </g>
                </g>
                <g transform="matrix(-9.54834,0,0,9.54834,9143.14,-13465.3)">
                    <g transform="matrix(50,0,0,50,875.306,1643.35)">
                        <path d="M0.233,0.075C0.232,0.075 0.231,0.075 0.231,0.075L0.23,0.075L0.12,0.01C0.118,0.009 0.117,0.007 0.117,0.005L0.115,-0.609C0.116,-0.612 0.117,-0.613 0.119,-0.615C0.371,-0.761 0.498,-0.833 0.499,-0.833C0.5,-0.833 0.519,-0.823 0.557,-0.801L0.613,-0.768L0.613,-0.768L0.613,-0.768L0.614,-0.768L0.614,-0.767L0.614,-0.767L0.615,-0.766L0.615,-0.766C0.615,-0.764 0.615,-0.764 0.615,-0.764C0.616,-0.764 0.616,-0.764 0.616,-0.763L0.617,-0.149C0.617,-0.146 0.616,-0.144 0.614,-0.143C0.362,0.002 0.235,0.075 0.233,0.075ZM0.227,0.057L0.225,-0.541L0.128,-0.598L0.13,0.001L0.227,0.057ZM0.232,-0.553L0.596,-0.763L0.499,-0.819L0.135,-0.609L0.232,-0.553ZM0.303,-0.179L0.431,-0.253L0.43,-0.58L0.302,-0.505L0.303,-0.179ZM0.303,-0.051L0.534,-0.185L0.438,-0.241L0.303,-0.163L0.303,-0.051ZM0.541,-0.196L0.54,-0.643L0.443,-0.587L0.444,-0.253L0.541,-0.196Z" style="fill:rgb(240,74,0);fill-rule:nonzero;"/>
                    </g>
                </g>
                <g transform="matrix(9.54834,0,0,9.54834,-7666.52,-13465.3)">
                    <g transform="matrix(50,0,0,50,875.306,1643.35)">
                        <path d="M0.234,0.075C0.233,0.075 0.233,0.075 0.232,0.075L0.231,0.075L0.231,0.074L0.23,0.074L0.121,0.01C0.118,0.009 0.117,0.007 0.117,0.004L0.115,-0.61L0.116,-0.61C0.116,-0.611 0.116,-0.612 0.116,-0.613C0.117,-0.614 0.128,-0.621 0.15,-0.633C0.173,-0.646 0.184,-0.652 0.185,-0.652C0.186,-0.652 0.206,-0.642 0.243,-0.62C0.28,-0.598 0.299,-0.587 0.299,-0.587L0.299,-0.586L0.3,-0.586L0.3,-0.586L0.3,-0.586L0.301,-0.585L0.301,-0.584L0.301,-0.584C0.301,-0.583 0.301,-0.583 0.302,-0.583L0.302,-0.583C0.302,-0.448 0.302,-0.314 0.303,-0.179C0.434,-0.255 0.5,-0.292 0.5,-0.292C0.502,-0.292 0.521,-0.282 0.558,-0.26C0.596,-0.238 0.614,-0.227 0.615,-0.227L0.615,-0.227L0.615,-0.226L0.616,-0.226L0.616,-0.226L0.616,-0.226L0.617,-0.223L0.618,-0.149C0.618,-0.147 0.617,-0.145 0.614,-0.144C0.362,0.002 0.235,0.075 0.234,0.075ZM0.303,-0.052L0.598,-0.222L0.5,-0.278L0.303,-0.164L0.303,-0.052ZM0.227,0.057L0.226,-0.542L0.129,-0.598L0.13,0L0.227,0.057ZM0.232,-0.553L0.282,-0.582L0.185,-0.638L0.135,-0.609L0.232,-0.553Z" style="fill:rgb(240,74,0);fill-rule:nonzero;"/>
                    </g>
                </g>
                <g transform="matrix(-9.54834,0,0,9.54834,9654.28,-13465.3)">
                    <g transform="matrix(50,0,0,50,875.306,1643.35)">
                        <path d="M0.233,0.075L0.231,0.075L0.12,0.011C0.118,0.009 0.117,0.007 0.117,0.005L0.117,-0.068C0.117,-0.07 0.118,-0.072 0.12,-0.073L0.274,-0.162L0.273,-0.489L0.235,-0.467C0.235,-0.467 0.234,-0.467 0.234,-0.466L0.23,-0.466C0.23,-0.467 0.23,-0.467 0.229,-0.467L0.229,-0.467L0.229,-0.467L0.119,-0.531C0.116,-0.533 0.115,-0.534 0.115,-0.537L0.115,-0.609C0.116,-0.612 0.117,-0.613 0.118,-0.615C0.371,-0.761 0.498,-0.833 0.499,-0.833C0.5,-0.833 0.519,-0.823 0.557,-0.801L0.613,-0.768L0.613,-0.768L0.614,-0.768L0.614,-0.767C0.614,-0.766 0.614,-0.766 0.615,-0.766L0.615,-0.765C0.615,-0.765 0.615,-0.765 0.615,-0.764L0.615,-0.763C0.616,-0.763 0.616,-0.739 0.616,-0.69C0.616,-0.688 0.615,-0.686 0.612,-0.685L0.458,-0.596L0.459,-0.269C0.486,-0.284 0.499,-0.292 0.5,-0.292C0.501,-0.292 0.521,-0.281 0.558,-0.259C0.596,-0.237 0.614,-0.227 0.615,-0.227L0.615,-0.226L0.616,-0.225L0.617,-0.222L0.617,-0.221L0.617,-0.149C0.617,-0.146 0.616,-0.144 0.614,-0.143C0.362,0.002 0.235,0.075 0.233,0.075ZM0.46,-0.142L0.597,-0.221L0.5,-0.277L0.459,-0.254L0.46,-0.142ZM0.226,-0.484L0.225,-0.541L0.128,-0.598L0.128,-0.541L0.226,-0.484ZM0.232,-0.553L0.596,-0.763L0.499,-0.819L0.135,-0.609L0.232,-0.553ZM0.227,0.057L0.227,0L0.13,-0.056L0.13,0.001L0.227,0.057ZM0.233,-0.011L0.377,-0.094L0.28,-0.15L0.137,-0.067L0.233,-0.011ZM0.384,-0.105L0.382,-0.552L0.286,-0.496L0.287,-0.162L0.384,-0.105Z" style="fill:rgb(240,74,0);fill-rule:nonzero;"/>
                    </g>
                </g>
                <g transform="matrix(9.54834,0,0,9.54834,-7155.39,-13465.3)">
                    <g transform="matrix(50,0,0,50,875.306,1643.35)">
                        <path d="M0.303,-0.188L0.431,-0.41L0.43,-0.554L0.408,-0.567L0.302,-0.505L0.303,-0.188ZM0.303,-0.051L0.396,-0.105L0.303,-0.159L0.303,-0.051ZM0.407,-0.114L0.538,-0.342L0.439,-0.399L0.308,-0.171L0.407,-0.114ZM0.541,-0.356L0.54,-0.491L0.443,-0.546L0.444,-0.412L0.541,-0.356ZM0.234,0.075C0.233,0.075 0.232,0.075 0.231,0.075C0.23,0.074 0.193,0.053 0.12,0.01C0.117,0.008 0.115,-0.198 0.115,-0.609C0.116,-0.612 0.117,-0.614 0.119,-0.615C0.253,-0.693 0.321,-0.732 0.322,-0.732C0.322,-0.732 0.323,-0.732 0.324,-0.732C0.325,-0.732 0.384,-0.699 0.503,-0.631C0.577,-0.588 0.614,-0.566 0.614,-0.566C0.615,-0.566 0.615,-0.565 0.615,-0.565C0.616,-0.564 0.616,-0.493 0.617,-0.351C0.617,-0.35 0.587,-0.298 0.528,-0.196C0.469,-0.094 0.439,-0.043 0.438,-0.042C0.303,0.036 0.235,0.075 0.234,0.075ZM0.227,0.057L0.226,-0.542L0.128,-0.598L0.13,0L0.227,0.057ZM0.232,-0.553L0.42,-0.662L0.323,-0.718L0.135,-0.609L0.232,-0.553Z" style="fill:rgb(240,74,0);fill-rule:nonzero;"/>
                    </g>
                </g>
                <g transform="matrix(-9.54834,0,0,9.54834,10165.7,-13465.3)">
                    <g transform="matrix(50,0,0,50,875.306,1643.35)">
                        <path d="M0.391,-0.016C0.389,-0.016 0.389,-0.016 0.388,-0.016C0.388,-0.016 0.351,-0.038 0.277,-0.081C0.275,-0.082 0.274,-0.084 0.274,-0.086L0.273,-0.489C0.247,-0.474 0.234,-0.467 0.234,-0.467L0.232,-0.467L0.229,-0.467L0.119,-0.531C0.117,-0.533 0.116,-0.535 0.116,-0.537L0.115,-0.61C0.116,-0.612 0.117,-0.614 0.119,-0.615C0.371,-0.761 0.498,-0.833 0.499,-0.833C0.5,-0.833 0.52,-0.823 0.557,-0.801C0.594,-0.779 0.613,-0.768 0.613,-0.768C0.613,-0.768 0.614,-0.767 0.614,-0.767C0.615,-0.766 0.615,-0.765 0.616,-0.764L0.616,-0.691C0.616,-0.688 0.615,-0.686 0.613,-0.685L0.459,-0.596L0.46,-0.059C0.46,-0.056 0.459,-0.054 0.457,-0.053C0.414,-0.028 0.392,-0.016 0.391,-0.016ZM0.226,-0.484L0.226,-0.542L0.128,-0.598L0.129,-0.541L0.226,-0.484ZM0.232,-0.553L0.596,-0.763L0.499,-0.819L0.135,-0.609L0.232,-0.553ZM0.384,-0.034L0.383,-0.552L0.286,-0.497L0.288,-0.09L0.384,-0.034Z" style="fill:rgb(240,74,0);fill-rule:nonzero;"/>
                    </g>
                </g>
                <g transform="matrix(9.54834,0,0,9.54834,-6643.99,-13465.3)">
                    <g transform="matrix(50,0,0,50,875.306,1643.35)">
                        <path d="M0.391,-0.016L0.389,-0.016L0.388,-0.016L0.388,-0.017L0.387,-0.017L0.277,-0.081C0.275,-0.082 0.274,-0.084 0.274,-0.086L0.273,-0.218L0.236,-0.196L0.234,-0.196C0.232,-0.196 0.231,-0.196 0.23,-0.196L0.229,-0.196L0.229,-0.197L0.12,-0.261C0.117,-0.262 0.116,-0.264 0.116,-0.266L0.115,-0.61C0.116,-0.612 0.117,-0.614 0.119,-0.615C0.161,-0.64 0.183,-0.652 0.185,-0.652C0.186,-0.652 0.205,-0.641 0.243,-0.62L0.299,-0.586L0.3,-0.586L0.3,-0.585L0.3,-0.585L0.301,-0.584L0.301,-0.583L0.302,-0.45L0.43,-0.524L0.429,-0.792L0.43,-0.792L0.43,-0.792C0.43,-0.793 0.43,-0.794 0.43,-0.794C0.431,-0.795 0.431,-0.795 0.431,-0.795C0.432,-0.796 0.443,-0.802 0.465,-0.815C0.487,-0.827 0.498,-0.833 0.499,-0.833C0.5,-0.833 0.519,-0.823 0.557,-0.801C0.594,-0.779 0.613,-0.768 0.613,-0.768L0.614,-0.768L0.614,-0.767L0.614,-0.767L0.615,-0.766L0.615,-0.764L0.616,-0.763L0.617,-0.42C0.617,-0.417 0.616,-0.415 0.613,-0.414L0.459,-0.326L0.46,-0.059C0.46,-0.056 0.459,-0.054 0.457,-0.053C0.414,-0.028 0.392,-0.016 0.391,-0.016ZM0.546,-0.734L0.596,-0.763L0.499,-0.819L0.449,-0.791L0.546,-0.734ZM0.54,-0.467L0.54,-0.723L0.443,-0.779L0.443,-0.524L0.54,-0.467ZM0.302,-0.322L0.534,-0.456L0.437,-0.512L0.302,-0.434L0.302,-0.322ZM0.226,-0.214L0.225,-0.542L0.128,-0.598L0.129,-0.27L0.226,-0.214ZM0.232,-0.553L0.282,-0.582L0.185,-0.638L0.135,-0.609L0.232,-0.553ZM0.384,-0.034L0.383,-0.282L0.287,-0.226L0.287,-0.09L0.384,-0.034Z" style="fill:rgb(240,74,0);fill-rule:nonzero;"/>
                    </g>
                </g>
                <g transform="matrix(-9.54834,0,0,9.54834,10676.3,-13465.3)">
                    <g transform="matrix(50,0,0,50,875.306,1643.35)">
                        <path d="M0.548,-0.106L0.546,-0.106L0.435,-0.171C0.432,-0.173 0.431,-0.174 0.431,-0.177L0.431,-0.309L0.234,-0.196C0.232,-0.196 0.194,-0.217 0.119,-0.261C0.117,-0.262 0.116,-0.264 0.116,-0.267L0.115,-0.61C0.115,-0.612 0.116,-0.614 0.118,-0.615C0.371,-0.761 0.498,-0.833 0.499,-0.833C0.5,-0.833 0.519,-0.823 0.557,-0.801C0.594,-0.779 0.613,-0.768 0.614,-0.768C0.614,-0.767 0.614,-0.767 0.615,-0.767C0.615,-0.764 0.616,-0.559 0.617,-0.149C0.617,-0.147 0.616,-0.145 0.614,-0.144C0.571,-0.119 0.549,-0.106 0.548,-0.106ZM0.226,-0.214L0.225,-0.542L0.128,-0.598L0.129,-0.27L0.226,-0.214ZM0.232,-0.553L0.596,-0.763L0.499,-0.819L0.135,-0.609L0.232,-0.553ZM0.541,-0.125L0.541,-0.372L0.444,-0.316L0.444,-0.181L0.541,-0.125ZM0.302,-0.45L0.43,-0.523L0.43,-0.58L0.302,-0.505L0.302,-0.45ZM0.302,-0.322L0.534,-0.456L0.437,-0.512L0.302,-0.434L0.302,-0.322ZM0.54,-0.467L0.54,-0.643L0.443,-0.587L0.443,-0.523L0.54,-0.467Z" style="fill:rgb(240,74,0);fill-rule:nonzero;"/>
                    </g>
                </g>
                <g transform="matrix(9.54834,0,0,9.54834,-6133.33,-13465.3)">
                    <g transform="matrix(50,0,0,50,875.306,1643.35)">
                        <path d="M0.234,0.075L0.232,0.075L0.12,0.01C0.118,0.009 0.117,0.007 0.117,0.005L0.115,-0.61C0.116,-0.612 0.117,-0.614 0.119,-0.615C0.371,-0.761 0.498,-0.833 0.499,-0.833C0.5,-0.833 0.52,-0.823 0.557,-0.801C0.594,-0.779 0.613,-0.768 0.613,-0.768L0.614,-0.767L0.614,-0.767C0.615,-0.767 0.615,-0.767 0.615,-0.766C0.615,-0.766 0.615,-0.766 0.615,-0.766L0.616,-0.764L0.616,-0.69C0.616,-0.688 0.615,-0.686 0.613,-0.685L0.302,-0.505L0.302,-0.45C0.433,-0.525 0.499,-0.563 0.5,-0.563C0.501,-0.563 0.52,-0.552 0.558,-0.53C0.595,-0.508 0.614,-0.497 0.614,-0.497C0.615,-0.497 0.615,-0.497 0.615,-0.497L0.615,-0.496L0.615,-0.496L0.615,-0.496L0.616,-0.496L0.616,-0.493C0.617,-0.493 0.617,-0.468 0.617,-0.42C0.617,-0.417 0.616,-0.415 0.613,-0.414L0.303,-0.235L0.303,-0.179C0.433,-0.254 0.499,-0.292 0.5,-0.292C0.502,-0.292 0.521,-0.281 0.559,-0.259L0.615,-0.227L0.616,-0.226L0.616,-0.225L0.616,-0.225L0.617,-0.224L0.617,-0.222L0.618,-0.149C0.617,-0.147 0.616,-0.145 0.614,-0.143C0.362,0.002 0.235,0.075 0.234,0.075ZM0.303,-0.051L0.597,-0.221L0.5,-0.278L0.303,-0.164L0.303,-0.051ZM0.302,-0.322L0.597,-0.492L0.5,-0.548L0.302,-0.434L0.302,-0.322ZM0.227,0.057L0.226,-0.542L0.128,-0.598L0.13,0.001L0.227,0.057ZM0.232,-0.553L0.596,-0.763L0.499,-0.819L0.135,-0.609L0.232,-0.553Z" style="fill:rgb(240,74,0);fill-rule:nonzero;"/>
                    </g>
                </g>
            </g>
        </g>
    </g>
</svg>
