<?xml version="1.0" encoding="UTF-8" standalone="no"?>
<!DOCTYPE svg PUBLIC "-//W3C//DTD SVG 1.1//EN" "http://www.w3.org/Graphics/SVG/1.1/DTD/svg11.dtd">
<svg width="100%" height="100%" viewBox="0 0 2356 506" version="1.1" xmlns="http://www.w3.org/2000/svg" xmlns:xlink="http://www.w3.org/1999/xlink" xml:space="preserve" xmlns:serif="http://www.serif.com/" style="fill-rule:evenodd;clip-rule:evenodd;stroke-linejoin:round;stroke-miterlimit:2;">
    <g transform="matrix(1,0,0,1,-6.99885e-13,-1320.09)">
        <g id="Black" transform="matrix(0.949366,0,0,0.842593,-28.481,100.454)">
            <rect x="30" y="1447.48" width="2480.94" height="599.948" style="fill:none;"/>
            <g id="Black1" serif:id="Black" transform="matrix(1.05333,0,0,1.18681,-187.157,-688.165)">
                <g transform="matrix(9.54834,0,0,9.54834,-8177.42,-13465.3)">
                    <text x="875.306px" y="1643.35px" style="font-family:'3DIsometric-Black', '3D Isometric', fantasy;font-weight:900;font-size:50px;">S</text>
                </g>
                <g transform="matrix(-9.54834,0,0,9.54834,9143.14,-13465.3)">
                    <text x="875.306px" y="1643.35px" style="font-family:'3DIsometric-Black', '3D Isometric', fantasy;font-weight:900;font-size:50px;">O</text>
                </g>
                <g transform="matrix(9.54834,0,0,9.54834,-7666.52,-13465.3)">
                    <text x="875.306px" y="1643.35px" style="font-family:'3DIsometric-Black', '3D Isometric', fantasy;font-weight:900;font-size:50px;">L</text>
                </g>
                <g transform="matrix(-9.54834,0,0,9.54834,9654.28,-13465.3)">
                    <text x="875.306px" y="1643.35px" style="font-family:'3DIsometric-Black', '3D Isometric', fantasy;font-weight:900;font-size:50px;">I</text>
                </g>
                <g transform="matrix(9.54834,0,0,9.54834,-7155.39,-13465.3)">
                    <text x="875.306px" y="1643.35px" style="font-family:'3DIsometric-Black', '3D Isometric', fantasy;font-weight:900;font-size:50px;">D</text>
                </g>
                <g transform="matrix(-9.54834,0,0,9.54834,10165.7,-13465.3)">
                    <text x="875.306px" y="1643.35px" style="font-family:'3DIsometric-Black', '3D Isometric', fantasy;font-weight:900;font-size:50px;">T</text>
                </g>
                <g transform="matrix(9.54834,0,0,9.54834,-6643.99,-13465.3)">
                    <text x="875.306px" y="1643.35px" style="font-family:'3DIsometric-Black', '3D Isometric', fantasy;font-weight:900;font-size:50px;">Y</text>
                </g>
                <g transform="matrix(-9.54834,0,0,9.54834,10676.3,-13465.3)">
                    <text x="875.306px" y="1643.35px" style="font-family:'3DIsometric-Black', '3D Isometric', fantasy;font-weight:900;font-size:50px;">9</text>
                </g>
                <g transform="matrix(9.54834,0,0,9.54834,-6133.33,-13465.3)">
                    <text x="875.306px" y="1643.35px" style="font-family:'3DIsometric-Black', '3D Isometric', fantasy;font-weight:900;font-size:50px;">E</text>
                </g>
            </g>
        </g>
    </g>
</svg>
