<svg fill="none" height="284" viewBox="0 0 1024 284" width="1024" xmlns="http://www.w3.org/2000/svg"><g fill="#131517"><path d="m127.992 62.1244c.719-.7215 1.691-1.1244 2.7-1.1244h60.308l-85.992 86.089c-.719.722-1.691 1.124-2.7 1.124h-60.308z"/><path d="m117.416 150.125c0-1.059.859-1.921 1.915-1.921h71.669l-73.584 73.796z"/><path d="m350.051 108.42c-8.334-4.484-18.013-6.755-28.774-6.755-10.76 0-20.787 2.553-29.281 7.575-8.513 5.041-15.21 12.22-19.923 21.35-4.693 9.092-7.073 19.767-7.073 31.742 0 11.976 2.455 22.472 7.299 31.639 4.863 9.215 11.805 16.432 20.619 21.463 8.785 5.022 19.16 7.566 30.843 7.566 13.422 0 24.945-3.891 34.229-11.57 9.293-7.679 15.181-17.704 17.495-29.792l.377-1.96h-22.002l-.319 1.225c-1.844 6.972-5.541 12.484-10.996 16.375-5.484 3.92-12.257 5.908-20.148 5.908-10.178 0-18.521-3.26-24.786-9.677-6.283-6.435-9.613-15.159-9.914-25.919h89.274l.123-1.508c.31-3.693.461-6.341.461-8.093-.311-11.372-2.888-21.444-7.666-29.933-4.798-8.527-11.476-15.132-19.847-19.636zm-60.999 40.505c1.157-7.905 4.684-14.453 10.506-19.494 6.284-5.436 13.668-8.187 21.954-8.187 9.331 0 17.139 2.609 23.206 7.754 5.625 4.777 9.048 11.476 10.168 19.927z"/><path d="m410.608 61h-21.803v160.643h21.803z"/><path d="m506.899 108.42c-8.333-4.484-18.012-6.755-28.773-6.755s-20.788 2.553-29.282 7.575c-8.512 5.041-15.21 12.22-19.922 21.35-4.694 9.083-7.073 19.767-7.073 31.733s2.455 22.471 7.299 31.639c4.863 9.214 11.805 16.431 20.618 21.463 8.786 5.022 19.161 7.566 30.843 7.566 13.423 0 24.945-3.892 34.229-11.571 9.294-7.678 15.182-17.703 17.496-29.792l.376-1.959h-22.001l-.32 1.225c-1.843 6.972-5.54 12.484-10.996 16.375-5.484 3.919-12.256 5.907-20.148 5.907-10.177 0-18.521-3.26-24.785-9.676-6.284-6.435-9.613-15.16-9.914-25.92h89.265l.122-1.507c.31-3.693.461-6.341.461-8.093-.311-11.373-2.888-21.445-7.666-29.934-4.797-8.527-11.476-15.131-19.847-19.635zm-60.999 40.505c1.157-7.905 4.684-14.453 10.507-19.494 6.283-5.436 13.667-8.187 21.954-8.187 9.331 0 17.138 2.609 23.205 7.754 5.625 4.777 9.049 11.476 10.168 19.927z"/><path d="m632.256 179.848c-1.571 7.264-5.079 13.021-10.45 17.129-5.4 4.127-12.2 6.218-20.224 6.218-10.441 0-19.019-3.806-25.509-11.306-6.547-7.566-9.867-17.591-9.867-29.783s3.32-21.953 9.867-29.443c6.49-7.425 15.068-11.193 25.509-11.193 7.713 0 14.373 2.091 19.772 6.218 5.39 4.127 8.983 9.742 10.686 16.724l.31 1.253h21.992l-.348-1.941c-2.314-13.002-8.099-23.376-17.167-30.838-9.067-7.452-20.693-11.231-34.567-11.231-11.373 0-21.597 2.544-30.392 7.566-8.813 5.032-15.746 12.22-20.618 21.35-4.844 9.092-7.299 19.701-7.299 31.526 0 11.824 2.417 22.471 7.186 31.629 4.788 9.205 11.598 16.46 20.261 21.576 8.644 5.107 18.803 7.689 30.184 7.689 14.025 0 25.764-3.816 34.907-11.344s15.031-18.015 17.505-31.159l.367-1.95h-21.823l-.282 1.3z"/><path d="m698.071 67.8591h-21.803v35.1629h-20.769v20.257h20.769v66.641c0 10.797 2.464 18.862 7.336 23.978 4.892 5.145 13.075 7.745 24.334 7.745h19.255v-20.257h-18.126c-4.167 0-7.064-.848-8.616-2.525-1.58-1.705-2.38-4.796-2.38-9.167v-66.415h29.122v-20.257h-29.122z"/><path d="m772.973 108.006c-3.913 2.346-7.469 5.757-10.356 9.902l.028-14.886h-21.851v118.621h21.804v-60.441c0-10.477 2.304-19.39 6.847-26.466 4.393-6.85 11.871-10.327 22.209-10.327h13.723v-21.387h-9.66c-9.594 0-17.242 1.677-22.744 4.984z"/><path d="m839.127 103.022h-21.804v118.621h21.804z"/><path d="m839.512 61h-22.574v22.6125h22.574z"/><path d="m940.178 178.548-.283 1.3c-1.561 7.264-5.079 13.021-10.45 17.129-5.399 4.127-12.2 6.218-20.223 6.218-10.441 0-19.02-3.806-25.51-11.306-6.547-7.566-9.867-17.591-9.867-29.783s3.32-21.943 9.867-29.443c6.49-7.425 15.078-11.193 25.51-11.193 7.713 0 14.372 2.091 19.772 6.218 5.389 4.118 8.983 9.742 10.685 16.724l.31 1.253h21.992l-.348-1.941c-2.314-13.002-8.089-23.376-17.166-30.838-9.068-7.452-20.694-11.231-34.568-11.231-11.372 0-21.597 2.544-30.391 7.566-8.814 5.032-15.746 12.22-20.619 21.35-4.844 9.092-7.308 19.701-7.308 31.526 0 11.824 2.417 22.471 7.186 31.629 4.788 9.205 11.607 16.47 20.261 21.576 8.644 5.107 18.803 7.689 30.184 7.689 14.025 0 25.764-3.816 34.907-11.344s15.031-18.015 17.505-31.159l.367-1.95h-21.823z"/></g></svg>