<svg fill="none" height="142" viewBox="0 0 1024 284" width="512" xmlns="http://www.w3.org/2000/svg"><path d="m127.992 62.1244c.719-.7215 1.691-1.1244 2.7-1.1244h60.308l-85.992 86.089c-.719.722-1.691 1.124-2.7 1.124h-60.308z" fill="#d0bcff"/><path d="m117.416 150.125c0-1.059.859-1.921 1.915-1.921h71.669l-73.584 73.796z" fill="#d0bcff"/><g fill="#f5f5f5"><path d="m349.47 108.35c-8.279-4.446-17.896-6.697-28.587-6.697-10.69 0-20.646 2.524-29.086 7.507-8.439 4.992-15.099 12.113-19.77 21.155-4.663 9.014-7.027 19.62-7.027 31.507 0 11.886 2.44 22.313 7.262 31.412 4.832 9.127 11.717 16.286 20.468 21.268 8.722 4.974 19.036 7.498 30.649 7.498 13.328 0 24.763-3.852 33.984-11.463 9.212-7.601 15.061-17.529 17.36-29.51l.273-1.403h-21.099l-.235.876c-1.875 7.073-5.642 12.678-11.19 16.634-5.567 3.984-12.452 6-20.449 6-10.323 0-18.791-3.306-25.158-9.815-6.386-6.527-9.777-15.391-10.06-26.307v-.406h89.425l.094-1.083c.311-3.683.452-6.301.452-8.044-.311-11.293-2.863-21.287-7.611-29.707-4.766-8.449-11.387-14.986-19.685-19.451zm-61.403 40.549c1.093-8.261 4.7-15.09 10.757-20.308 6.377-5.51 13.884-8.307 22.285-8.307 9.457 0 17.379 2.646 23.539 7.855 5.849 4.954 9.353 11.934 10.417 20.76z"/><path d="m409.865 61h-20.892v159.653h20.892z"/><path d="m506.542 108.35c-8.279-4.446-17.896-6.697-28.587-6.697-10.69 0-20.646 2.524-29.086 7.507-8.439 4.992-15.098 12.113-19.77 21.155-4.663 9.014-7.027 19.62-7.027 31.507 0 11.886 2.44 22.313 7.262 31.412 4.832 9.127 11.718 16.286 20.468 21.268 8.722 4.974 19.036 7.498 30.65 7.498 13.327 0 24.762-3.852 33.983-11.463 9.212-7.601 15.062-17.529 17.36-29.51l.273-1.403h-21.099l-.235.876c-1.875 7.073-5.642 12.678-11.19 16.634-5.567 3.984-12.452 6-20.449 6-10.323 0-18.791-3.306-25.158-9.815-6.386-6.527-9.777-15.391-10.06-26.307v-.406h89.425l.094-1.083c.311-3.683.452-6.301.452-8.044-.311-11.293-2.863-21.287-7.61-29.707-4.766-8.449-11.388-14.986-19.686-19.451zm-61.403 40.549c1.093-8.261 4.701-15.09 10.757-20.308 6.377-5.51 13.884-8.307 22.286-8.307 9.456 0 17.378 2.646 23.538 7.855 5.849 4.954 9.353 11.934 10.417 20.76z"/><path d="m632.748 179.445c-1.591 7.375-5.171 13.224-10.643 17.397-5.491 4.191-12.405 6.31-20.534 6.31-10.596 0-19.309-3.852-25.902-11.463-6.631-7.648-9.994-17.773-9.994-30.084s3.363-22.163 9.994-29.745c6.593-7.536 15.306-11.35 25.902-11.35 7.837 0 14.59 2.128 20.082 6.31 5.482 4.192 9.136 9.9 10.869 16.973l.217.895h21.089l-.245-1.384c-2.298-12.886-8.034-23.162-17.029-30.546-8.986-7.375-20.534-11.115-34.314-11.115-11.303 0-21.466 2.524-30.197 7.498-8.741 4.992-15.627 12.103-20.459 21.155-4.813 9.023-7.262 19.554-7.262 31.3 0 11.745 2.402 22.313 7.14 31.403 4.747 9.127 11.519 16.314 20.11 21.381 8.58 5.058 18.668 7.62 29.98 7.62 13.931 0 25.592-3.777 34.653-11.228 9.071-7.45 14.911-17.839 17.36-30.866l.263-1.394h-20.91l-.198.933z"/><path d="m697.73 67.8571h-20.891v35.1519h-20.797v19.309h20.797v67.092c0 10.663 2.43 18.622 7.224 23.642 4.804 5.039 12.886 7.601 24.019 7.601h18.81v-19.309h-17.68c-4.314 0-7.328-.904-8.967-2.675-1.667-1.799-2.515-4.992-2.515-9.485v-66.866h29.162v-19.309h-29.162z"/><path d="m773.441 107.926c-4.276 2.562-8.11 6.405-11.096 11.048l.038-15.965h-20.939v117.644h20.892v-59.952c0-10.568 2.336-19.554 6.932-26.713 4.493-6.989 12.113-10.539 22.634-10.539h13.272v-20.44h-9.203c-9.522 0-17.095 1.658-22.53 4.917z"/><path d="m838.97 103.009h-20.892v117.644h20.892z"/><path d="m839.356 61h-21.664v21.6639h21.664z"/><path d="m941.015 178.512-.197.933c-1.592 7.365-5.171 13.224-10.644 17.397-5.491 4.191-12.395 6.31-20.533 6.31-10.597 0-19.31-3.852-25.903-11.463-6.631-7.648-9.994-17.773-9.994-30.084s3.363-22.163 9.994-29.745c6.593-7.536 15.306-11.35 25.903-11.35 7.836 0 14.59 2.128 20.081 6.31 5.482 4.182 9.136 9.9 10.87 16.973l.216.895h21.089l-.244-1.384c-2.299-12.886-8.026-23.162-17.03-30.546-8.995-7.375-20.534-11.115-34.314-11.115-11.303 0-21.466 2.524-30.197 7.498-8.751 4.992-15.636 12.103-20.458 21.155-4.814 9.023-7.263 19.554-7.263 31.3 0 11.745 2.402 22.313 7.14 31.403 4.747 9.127 11.52 16.314 20.11 21.381 8.581 5.058 18.668 7.62 29.981 7.62 13.93 0 25.591-3.777 34.652-11.228 9.071-7.45 14.911-17.839 17.36-30.866l.263-1.394h-20.91z"/></g></svg>